<?xml version="1.0" standalone="no"?>
<!DOCTYPE svg PUBLIC "-//W3C//DTD SVG 20010904//EN"
 "http://www.w3.org/TR/2001/REC-SVG-20010904/DTD/svg10.dtd">
<svg version="1.0" xmlns="http://www.w3.org/2000/svg"
 width="378.000000pt" height="133.000000pt" viewBox="0 0 378.000000 133.000000"
 preserveAspectRatio="xMidYMid meet">

<g transform="translate(0.000000,133.000000) scale(0.100000,-0.100000)"
fill="#000000" stroke="none">
<path d="M2117 906 c-101 -38 -155 -161 -113 -259 17 -39 71 -92 109 -106 44
-17 137 -13 183 8 137 62 144 267 11 341 -49 28 -139 35 -190 16z m139 -95
c42 -25 61 -80 44 -122 -26 -61 -92 -86 -155 -57 -54 24 -71 105 -34 152 38
49 93 58 145 27z"/>
<path d="M2545 906 c-47 -21 -67 -51 -73 -106 -4 -43 -1 -52 19 -71 14 -11 46
-28 73 -37 57 -20 77 -42 57 -66 -17 -20 -71 -21 -97 -1 -28 21 -32 19 -51
-21 -20 -40 -15 -46 47 -64 72 -21 145 -6 184 38 10 12 21 42 23 66 8 63 -12
90 -88 117 -65 24 -79 40 -58 65 13 15 44 15 81 0 12 -6 21 0 33 23 9 18 13
36 10 40 -5 9 -93 31 -118 31 -7 -1 -25 -7 -42 -14z"/>
<path d="M405 894 c-80 -41 -108 -92 -103 -183 4 -81 30 -120 102 -156 52 -26
107 -32 150 -15 23 8 26 15 26 60 l0 50 -34 -16 c-70 -34 -148 9 -150 84 -2
82 72 130 146 93 l38 -18 0 52 c0 39 -4 54 -16 59 -31 12 -129 6 -159 -10z"/>
<path d="M650 725 l0 -185 105 0 105 0 0 40 0 40 -61 0 -60 0 3 33 c3 31 4 32
56 35 l52 3 0 35 0 34 -55 0 -55 0 0 35 0 35 60 0 60 0 0 40 0 40 -105 0 -105
0 0 -185z"/>
<path d="M920 725 l0 -185 50 0 49 0 3 112 3 113 88 -113 88 -112 50 0 49 0 0
185 0 185 -50 0 -49 0 -3 -111 -3 -110 -87 110 -88 111 -50 0 -50 0 0 -185z"/>
<path d="M1350 870 l0 -40 40 0 40 0 0 -145 0 -145 45 0 45 0 0 145 0 145 40
0 40 0 0 40 0 40 -125 0 -125 0 0 -40z"/>
<path d="M1650 725 l0 -185 51 0 51 0 -4 65 c-1 36 -1 65 2 65 3 0 24 -30 48
-65 l42 -65 60 0 61 0 -56 70 -56 70 35 34 c31 28 36 40 36 77 0 87 -50 119
-185 119 l-85 0 0 -185z m160 95 c11 -11 20 -24 20 -30 0 -17 -39 -50 -60 -50
-17 0 -20 7 -20 50 0 43 3 50 20 50 11 0 29 -9 40 -20z"/>
<path d="M2800 770 c0 -165 9 -191 73 -221 82 -37 187 -12 227 53 17 29 20 50
20 171 l0 137 -44 0 -44 0 -4 -130 c-4 -145 -12 -163 -69 -163 -58 0 -69 27
-69 169 l0 124 -45 0 -45 0 0 -140z"/>
<path d="M3200 725 l0 -185 110 0 110 0 0 40 0 40 -60 0 -60 0 0 145 0 145
-50 0 -50 0 0 -185z"/>
</g>
</svg>
