<?xml version="1.0" standalone="no"?>
<!DOCTYPE svg PUBLIC "-//W3C//DTD SVG 20010904//EN"
 "http://www.w3.org/TR/2001/REC-SVG-20010904/DTD/svg10.dtd">
<svg version="1.0" xmlns="http://www.w3.org/2000/svg"
 width="500.000000pt" height="500.000000pt" viewBox="0 0 500.000000 500.000000"
 preserveAspectRatio="xMidYMid meet">

<g transform="translate(0.000000,500.000000) scale(0.100000,-0.100000)"
fill="#000000" stroke="none">
<path d="M0 2500 l0 -2500 2500 0 2500 0 0 2500 0 2500 -2500 0 -2500 0 0
-2500z m2556 1960 c1028 -83 1814 -931 1814 -1960 0 -979 -704 -1793 -1683
-1947 -136 -21 -428 -21 -564 0 -641 101 -1175 483 -1467 1052 -92 178 -153
363 -193 585 -21 119 -24 475 -4 594 22 134 68 307 110 416 275 713 921 1196
1681 1259 140 12 165 12 306 1z"/>
<path d="M2285 4408 c-763 -38 -1448 -565 -1694 -1303 -133 -400 -133 -810 0
-1209 322 -967 1339 -1510 2327 -1240 821 223 1402 988 1402 1844 0 540 -234
1065 -635 1422 -172 153 -359 270 -565 353 -270 108 -525 149 -835 133z m-849
-1352 l34 -34 0 -197 0 -197 -34 -34 -34 -34 -231 0 -231 0 0 265 0 265 231 0
231 0 34 -34z m577 14 c40 -32 47 -77 47 -302 l0 -208 -55 0 -55 0 0 105 0
105 -160 0 -160 0 0 -105 0 -105 -55 0 -55 0 0 231 0 231 34 34 34 34 200 0
c186 0 201 -1 225 -20z m627 -35 l0 -55 -105 0 -105 0 0 -210 0 -210 -55 0
-55 0 0 210 0 209 -107 3 -108 3 -3 53 -3 52 270 0 271 0 0 -55z m543 35 c40
-32 47 -77 47 -302 l0 -208 -55 0 -55 0 0 105 0 105 -160 0 -160 0 0 -105 0
-105 -55 0 -55 0 0 231 0 231 34 34 34 34 200 0 c186 0 201 -1 225 -20z
m-1747 -664 l34 -34 0 -231 0 -231 -55 0 -55 0 0 210 0 210 -50 0 -50 0 0
-210 0 -210 -55 0 -55 0 0 210 0 210 -55 0 -55 0 0 -210 0 -210 -50 0 -50 0 0
236 0 236 29 29 29 29 202 0 202 0 34 -34z m194 -176 l0 -210 160 0 160 0 0
210 0 210 55 0 55 0 0 -207 c0 -237 -7 -275 -53 -303 -29 -18 -51 -20 -224
-20 l-193 0 -32 29 -33 29 -3 236 -3 236 55 0 56 0 0 -210z m727 38 l173 -173
0 173 0 172 55 0 55 0 0 -247 c0 -215 -2 -249 -17 -265 -33 -37 -53 -23 -228
152 -93 94 -173 170 -177 170 -5 0 -8 -76 -8 -170 l0 -170 -55 0 -56 0 3 248
c3 269 6 282 57 282 20 0 63 -37 198 -172z m826 152 c38 -30 47 -77 47 -245 0
-178 -9 -219 -53 -245 -29 -18 -52 -20 -259 -20 l-228 0 0 265 0 265 234 0
c220 0 235 -1 259 -20z m594 -15 l34 -34 -3 -201 -3 -202 -33 -29 -32 -29
-191 0 c-204 0 -234 6 -256 52 -15 30 -25 341 -13 393 5 22 21 50 35 63 25 21
33 22 227 22 l200 0 35 -35z"/>
<path d="M1040 2825 l0 -155 160 0 160 0 0 155 0 155 -160 0 -160 0 0 -155z"/>
<path d="M1630 2930 l0 -50 160 0 160 0 0 50 0 50 -160 0 -160 0 0 -50z"/>
<path d="M2800 2930 l0 -50 160 0 160 0 0 50 0 50 -160 0 -160 0 0 -50z"/>
<path d="M2800 2175 l0 -155 160 0 160 0 0 155 0 155 -160 0 -160 0 0 -155z"/>
<path d="M3380 2175 l0 -155 160 0 160 0 0 155 0 155 -160 0 -160 0 0 -155z"/>
</g>
</svg>
