<?xml version="1.0" standalone="no"?>
<!DOCTYPE svg PUBLIC "-//W3C//DTD SVG 20010904//EN"
 "http://www.w3.org/TR/2001/REC-SVG-20010904/DTD/svg10.dtd">
<svg version="1.0" xmlns="http://www.w3.org/2000/svg"
 width="225.000000pt" height="225.000000pt" viewBox="0 0 225.000000 225.000000"
 preserveAspectRatio="xMidYMid meet">

<g transform="translate(0.000000,225.000000) scale(0.100000,-0.100000)"
fill="#000000" stroke="none">
<path d="M0 1125 l0 -1125 1125 0 1125 0 0 1125 0 1125 -1125 0 -1125 0 0
-1125z m1992 181 c-20 -19 -38 -33 -40 -31 -2 2 4 17 13 34 11 22 23 31 40 31
24 0 23 -1 -13 -34z m-1224 -67 c76 -37 117 -127 92 -203 -26 -78 -88 -126
-165 -126 -95 0 -164 61 -173 150 -2 27 -2 60 2 74 15 60 103 125 170 126 16
0 49 -10 74 -21z m-428 -123 c14 14 51 49 83 76 l57 50 0 -161 0 -161 -35 0
-35 0 0 83 0 82 -95 -3 -95 -3 0 -80 0 -79 -35 0 -35 0 0 167 0 168 83 -83 83
-83 24 27z m775 -26 l50 0 -3 80 -4 80 41 0 41 0 0 -166 0 -166 -89 81 c-84
77 -91 81 -135 81 l-46 0 0 -80 0 -80 -35 0 -35 0 0 166 0 167 83 -81 c80 -80
83 -82 132 -82z m315 62 c0 -82 -4 -105 -22 -142 -24 -47 -83 -90 -125 -90
-20 0 -23 5 -23 35 0 29 4 35 21 35 11 0 34 13 50 29 28 29 29 32 29 130 l0
101 35 0 35 0 0 -98z m100 -11 c0 -102 1 -110 25 -134 30 -29 58 -36 102 -25
53 14 67 47 71 165 l4 103 30 0 30 0 -4 -122 c-3 -138 -12 -159 -79 -197 -67
-38 -144 -25 -202 36 -37 39 -47 80 -47 190 l0 93 35 0 35 0 0 -109z m490 -61
l80 -160 -40 0 c-38 0 -41 3 -65 50 -23 46 -28 50 -60 50 -32 0 -37 -4 -60
-50 -24 -47 -28 -50 -63 -50 l-38 0 80 160 c44 88 82 160 83 160 2 0 39 -72
83 -160z"/>
<path d="M654 1180 c-66 -27 -85 -120 -35 -171 56 -55 159 -26 176 50 10 45
-18 99 -59 116 -40 17 -52 17 -82 5z"/>
</g>
</svg>
