<?xml version="1.0" standalone="no"?>
<!DOCTYPE svg PUBLIC "-//W3C//DTD SVG 20010904//EN"
 "http://www.w3.org/TR/2001/REC-SVG-20010904/DTD/svg10.dtd">
<svg version="1.0" xmlns="http://www.w3.org/2000/svg"
 width="400.000000pt" height="400.000000pt" viewBox="0 0 400.000000 400.000000"
 preserveAspectRatio="xMidYMid meet">

<g transform="translate(0.000000,400.000000) scale(0.100000,-0.100000)"
fill="#000000" stroke="none">
<path d="M0 1998 l0 -2003 399 399 399 399 75 -69 c216 -201 522 -352 832
-410 140 -27 492 -27 615 -1 289 61 532 171 750 340 86 66 231 214 302 307
242 321 360 694 345 1099 -6 181 -30 310 -87 482 -75 227 -197 434 -361 613
l-52 58 394 394 394 394 -2003 0 -2002 0 0 -2002z m2188 272 c44 -20 112 -75
112 -91 0 -4 -26 -28 -59 -53 l-58 -45 -23 24 c-67 72 -187 49 -225 -42 -20
-47 -19 -89 4 -140 40 -86 150 -101 228 -31 l21 20 62 -42 62 -42 -38 -40
c-60 -63 -123 -88 -219 -88 -63 0 -90 5 -130 24 -183 87 -228 334 -87 479 89
93 230 120 350 67z m1045 20 c62 -9 158 -47 171 -68 3 -5 -13 -34 -35 -64
l-39 -56 -44 24 c-76 42 -176 42 -176 -1 0 -22 38 -42 113 -59 84 -20 137 -46
171 -86 22 -26 26 -41 26 -91 0 -64 -14 -101 -52 -136 -81 -76 -286 -70 -410
12 -43 29 -43 28 18 98 l32 35 56 -28 c96 -49 196 -49 196 -1 0 25 -34 43
-124 65 -138 34 -186 79 -186 175 0 56 10 82 44 119 34 38 71 54 166 71 3 0
36 -4 73 -9z m-2283 -19 c98 -30 154 -131 130 -238 -23 -103 -94 -152 -236
-161 l-84 -5 0 -78 0 -79 -80 0 -80 0 0 291 0 292 158 -6 c86 -3 173 -10 192
-16z m360 -176 c3 -104 9 -197 13 -206 18 -36 85 -54 131 -35 59 25 66 51 66
256 l0 180 80 0 80 0 0 -193 c0 -225 -9 -270 -66 -328 -53 -54 -114 -72 -223
-67 -140 7 -205 54 -236 173 -16 62 -22 394 -8 409 4 4 41 5 83 4 l75 -3 5
-190z m1457 170 c140 -56 163 -262 38 -336 l-35 -21 65 -95 c36 -52 65 -97 65
-99 0 -2 -42 -4 -92 -4 l-93 0 -55 85 c-50 77 -58 85 -87 85 l-33 0 0 -85 0
-85 -85 0 -85 0 0 283 c0 156 3 287 8 292 4 4 84 5 177 2 128 -4 180 -9 212
-22z"/>
<path d="M760 2075 l0 -75 50 0 c62 0 97 16 108 49 21 62 -23 101 -114 101
l-44 0 0 -75z"/>
<path d="M2540 2075 l0 -65 68 0 c83 0 112 16 112 64 0 51 -24 66 -108 66
l-72 0 0 -65z"/>
</g>
</svg>
